<svg xmlns="http://www.w3.org/2000/svg" viewBox="0 0 64 64">
  <rect width="64" height="64" rx="18" fill="#07131A"/>
  <path d="M22 15.2c9.1-2.6 18.7 1 24 8.5l3.1-3.5-.5 10-9.6-2.8 3-3.3c-4.3-5.8-11.9-8.5-19.3-6.4Z" fill="#4DEFC6"/>
  <path d="M42 48.8c-9.1 2.6-18.7-1-24-8.5l-3.1 3.5.5-10 9.6 2.8-3 3.3c4.3 5.8 11.9 8.5 19.3 6.4Z" fill="#1EC4FF"/>
  <path d="M12 31.5h10.3c1.8 0 3.1-.9 3.8-2.4l.7-1.5H16c-1.8 0-3.1.8-4 2.3l-1 1.6Zm0 5h13.5l-.7 1.6c-.7 1.4-2.1 2.3-3.8 2.3H12v-3.9Z" fill="#1EC4FF"/>
  <path d="M22.7 22.2h18.8c1.8 0 2.8 1.9 1.8 3.2l-1.7 2.3H32.7l-3.8 13.9h-7.4l4-13.9h-6.4l1.1-3.4c.4-1.2 1.3-2.1 2.5-2.1Z" fill="#F7FBFF"/>
  <path d="M39.6 28.3h9.3c1.6 0 2.9 1.3 2.9 2.9 0 1.1-.7 2.1-1.7 2.6l-1.8.8H37.5l2.1-6.3Zm-2.7 8h10.2l-1.6 4.6H34.8l2.1-4.6Z" fill="#4DEFC6"/>
</svg>
