<svg xmlns="http://www.w3.org/2000/svg" viewBox="0 0 620 140" role="img" aria-label="Transfer Express">
  <defs>
    <linearGradient id="accent" x1="0" y1="0" x2="1" y2="1">
      <stop offset="0%" stop-color="#55F4C4"/>
      <stop offset="100%" stop-color="#13C0FF"/>
    </linearGradient>
    <linearGradient id="accent2" x1="0" y1="0" x2="1" y2="1">
      <stop offset="0%" stop-color="#63FFD4"/>
      <stop offset="100%" stop-color="#25CAFF"/>
    </linearGradient>
  </defs>
  <g transform="translate(8 8)">
    <rect x="0" y="0" width="112" height="112" rx="32" fill="#0B1A21" stroke="rgba(255,255,255,.08)"/>
    <path d="M34 17c20-5.7 41 2.1 52.7 18.8l6.7-7.5-1 22-21-6.1 6.6-7.2c-9.4-12.7-26.2-18.6-42.6-14Z" fill="url(#accent)"/>
    <path d="M77.6 95.1c-16.4 4.5-33.2-1.4-42.6-14l-6.6 7.2 1-22 21 6.1-6.7 7.5c11.7 16.8 32.7 24.5 52.7 18.8Z" fill="url(#accent2)"/>
    <path d="M11 57.5h22.6c4 0 6.8-1.8 8.4-5.1l1.6-3.2H19.8c-3.9 0-6.9 1.9-8.8 5Zm0 10.9h29.5l-1.5 3.5c-1.5 3.1-4.6 5-8.4 5H11V68.4Z" fill="url(#accent2)"/>
    <path d="M34.8 37.5h40.9c3.9 0 6.2 4.1 3.9 6.9l-3.8 5H56.6L48.3 80H32.2l8.7-30.6H27l2.4-7.5c.9-2.7 2.8-4.4 5.4-4.4Z" fill="#F8FBFF"/>
    <path d="M71.6 50.9h20.2c3.5 0 6.2 2.8 6.2 6.3 0 2.5-1.4 4.6-3.8 5.6l-3.9 1.7H67.1l4.5-13.6Zm-5.8 17.1h22.1l-3.4 9.9H61.2l4.6-9.9Z" fill="url(#accent)"/>
  </g>
  <g transform="translate(146 43)">
    <text x="0" y="44" font-family="Inter, Segoe UI, Arial, sans-serif" font-size="58" font-weight="800" font-style="italic" fill="#F8FBFF" letter-spacing="-1.8">Transfer</text>
    <text x="238" y="44" font-family="Inter, Segoe UI, Arial, sans-serif" font-size="58" font-weight="800" font-style="italic" fill="url(#accent)" letter-spacing="-1.8">Express</text>
    <text x="2" y="78" font-family="Inter, Segoe UI, Arial, sans-serif" font-size="17" font-weight="600" fill="#9AB4BF" letter-spacing="3.4">RIGA · LATVIA</text>
  </g>
</svg>
